# xmcd
#
# Track frame offsets: 
#        45040
#        60820
#        80156
#        96304
#        112184
#        129044
#        151780
#        173648
#        193864
#        217640
#        235356
#        255924
#        274000
#        292820
#
# Disc length: 4155 seconds
#
# Revision: 4
# Processed by: cddbd v1.5.2PL0 Copyright (c) Steve Scherf et al.
# Submitted via: ExactAudioCopyFreeDBPlugin 1.0
#
DISCID=b50de30e
DTITLE=Mobb Deep - Hell On Earth
DYEAR=1996
DGENRE=Hip-Hop
TTITLE0=Animal Instinct (feat. Ty Knitty and Gambino)
TTITLE1=Drop A Gem On 'Em
TTITLE2=Bloodsport
TTITLE3=Extortion (feat. Johnny Blaze aka Method Man)
TTITLE4=More Trife Life
TTITLE5=Man Down (feat. Big Noyd)
TTITLE6=Can't Get Enough Of It (feat. General G)
TTITLE7=Nighttime Vultures (feat. Lex Diamonds aka Raekwon)
TTITLE8=G.O.D. Pt. III
TTITLE9=Get Dealt With
TTITLE10=Hell On Earth (Front Lines)
TTITLE11=Give It Up Fast (feat. Nas and Big Noyd)
TTITLE12=Still Shinin'
TTITLE13=Apostle's Warning
EXTD=
EXTT0=
EXTT1=
EXTT2=
EXTT3=
EXTT4=
EXTT5=
EXTT6=
EXTT7=
EXTT8=
EXTT9=
EXTT10=
EXTT11=
EXTT12=
EXTT13=
PLAYORDER=
